Coordinates
version=1
nRows=14
nColumns=42
inDegrees=yes

Units are S.I. units (second, meters, Newtons, ...)
If the header above contains a line with 'inDegrees', this indicates whether rotational values are in degrees (yes) or radians (no).

endheader
time	pelvis_tilt	pelvis_list	pelvis_rotation	pelvis_tx	pelvis_ty	pelvis_tz	hip_flexion_r	hip_adduction_r	hip_rotation_r	knee_angle_r	knee_adduction_r	knee_angle_r_beta	ankle_angle_r	subtalar_angle_r	mtp_angle_r	hip_flexion_l	hip_adduction_l	hip_rotation_l	knee_angle_l	knee_adduction_l	knee_angle_l_beta	ankle_angle_l	subtalar_angle_l	mtp_angle_l	lumbar_extension	lumbar_bending	lumbar_rotation	arm_flex_r	arm_add_r	arm_rot_r	elbow_flex_r	pro_sup_r	wrist_flex_r	wrist_dev_r	arm_flex_l	arm_add_l	arm_rot_l	elbow_flex_l	pro_sup_l	wrist_flex_l	wrist_dev_l
      1.77000000	     13.60048742	     -4.45112617	      3.07274006	     -0.31051989	      0.87955425	      0.16272644	      7.40990700	      2.62321369	    -23.55595983	     27.98142968	      0.05151095	      0.48836808	     14.22281973	     31.45318983	     -7.51146336	    -25.05981989	     -5.69730255	    -12.75787259	     40.64297134	     -9.39154272	      0.70935367	     10.96678721	     26.28946290	     -7.51146336	    -35.77430366	      8.07431104	      1.60513541	     -1.13484828	    -16.09075128	      0.13122289	     44.18263206	     90.00000001	      0.00000000	      0.00000000	     22.28590696	    -14.53244759	      8.35127389	     52.48689412	     90.00000001	      0.00000000	      0.00000000
      1.78000000	     13.62325689	     -4.76342724	      3.32385344	     -0.29769681	      0.88211829	      0.16403062	      5.91122786	      3.21377244	    -24.00760396	     26.93732672	      0.12871671	      0.47014504	     14.77596336	     32.12167317	     -7.51104791	    -23.22058898	     -6.38150365	    -13.22577503	     43.69768969	    -10.40261840	      0.76266856	     10.95364362	     26.17396984	     -7.51104791	    -35.84681286	      8.41283707	      1.72983156	     -0.86966484	    -16.15087882	      0.17063853	     44.39798444	     90.00000001	      0.00000000	      0.00000000	     21.67193247	    -14.45640103	      8.55934616	     52.21274571	     90.00000001	      0.00000000	      0.00000000
      1.79000000	     13.65288439	     -4.90784833	      3.65628730	     -0.28513730	      0.88468240	      0.16511960	      4.38817901	      3.63284940	    -24.63237012	     25.83417225	      0.14809858	      0.45089137	     15.25278024	     32.96887154	     -7.51068590	    -21.26059731	     -6.87622085	    -13.60639463	     46.52221753	    -11.45246251	      0.81196587	     11.30343916	     26.01075925	     -7.51068590	    -35.93916971	      8.61327662	      1.73635480	     -0.62089189	    -16.17092687	      0.18607523	     44.71762853	     90.00000001	      0.00000000	      0.00000000	     21.11989959	    -14.41656539	      8.80217777	     51.85621890	     90.00000001	      0.00000000	      0.00000000
      1.80000000	     13.69325953	     -4.88422404	      4.04484085	     -0.27278785	      0.88718384	      0.16598396	      2.86555790	      3.85443704	    -25.38346433	     24.74486565	      0.17320836	      0.43187938	     15.67946940	     33.94170178	     -7.51033407	    -19.23027963	     -7.12974671	    -13.90340075	     49.04208565	    -12.53612039	      0.85594587	     11.92349746	     25.76014111	     -7.51033407	    -36.05400728	      8.67194516	      1.65141755	     -0.38495902	    -16.16363721	      0.18390051	     45.11884252	     90.00000001	      0.00000000	      0.00000000	     20.61983045	    -14.39885320	      9.07564259	     51.43250656	     90.00000001	      0.00000000	      0.00000000
      1.81000000	     13.78843004	     -4.52987579	      4.44634485	     -0.26064988	      0.88982099	      0.16635279	      1.24820838	      3.60905847	    -25.60498890	     23.76534246	      0.63339193	      0.41478347	     16.16492015	     34.17700930	     -7.51016376	    -17.24941952	     -6.82251316	    -14.09273217	     51.04632385	    -13.73053223	      0.89092642	     12.49095543	     25.29683986	     -7.51016376	    -36.24802580	      8.44481906	      1.37366413	     -0.12690894	    -16.14548341	      0.18667906	     45.59318660	     90.00000001	      0.00000000	      0.00000000	     20.14015856	    -14.37310751	      9.22756696	     50.97967915	     90.00000001	      0.00000000	      0.00000000
      1.82000000	     13.77487157	     -4.37811082	      4.90558795	     -0.24865269	      0.89199539	      0.16723086	     -0.08819864	      3.77178996	    -26.68335879	     22.80364990	      0.39006111	      0.39799877	     16.49151382	     35.49595522	     -7.50966891	    -15.02554552	     -6.91522158	    -14.17326591	     53.07685234	    -14.47082044	      0.92636583	     13.55642740	     24.71371327	     -7.50966891	    -36.32091119	      8.36540079	      1.26671272	      0.05701729	    -16.10583637	      0.17969847	     46.09458455	     90.00000001	      0.00000000	      0.00000000	     19.73619521	    -14.42361304	      9.65511326	     50.45674380	     90.00000001	      0.00000000	      0.00000000
      1.83000000	     13.82255301	     -3.88421698	      5.25033774	     -0.23681165	      0.89430899	      0.16772765	     -1.54367441	      3.44710058	    -26.62466486	     21.96626080	      0.80634670	      0.38338358	     16.95533829	     35.35056608	     -7.50951822	    -12.97260975	     -6.38180812	    -14.35931832	     54.44578464	    -15.34697616	      0.95025821	     14.29763077	     24.15534170	     -7.50951822	    -36.50358005	      7.93690821	      1.02837752	      0.30238567	    -16.06562538	      0.21543867	     46.61013553	     90.00000001	      0.00000000	      0.00000000	     19.29588084	    -14.40746466	      9.75726320	     49.98517421	     90.00000001	      0.00000000	      0.00000000
      1.84000000	     13.78931260	     -3.47928762	      5.64177281	     -0.22498203	      0.89624726	      0.16817160	     -2.88897679	      3.25094922	    -26.57095892	     21.09646051	      1.17005435	      0.36820270	     17.43517056	     35.35827543	     -7.50936440	    -10.79778740	     -5.92160857	    -14.46447381	     55.61144934	    -16.05136720	      0.97060289	     15.30052307	     23.45117714	     -7.50936440	    -36.58065727	      7.62378255	      0.81397902	      0.50270683	    -16.10575572	      0.26827187	     47.20055486	     90.00000001	      0.00000000	      0.00000000	     18.83733739	    -14.42595017	      9.90547707	     49.42155400	     90.00000001	      0.00000000	      0.00000000
      1.85000000	     13.73769545	     -3.09230183	      5.97347782	     -0.21320318	      0.89795561	      0.16875948	     -4.15059267	      3.10091644	    -26.46139573	     20.30330988	      1.44975128	      0.35435961	     17.89645694	     35.38288480	     -7.50920353	     -8.65891319	     -5.46127449	    -14.48121678	     56.46458428	    -16.44256947	      0.98549291	     16.39083546	     22.65238577	     -7.50920353	    -36.65385126	      7.28666977	      0.70072883	      0.67621837	    -16.15572622	      0.36310806	     47.83916882	     90.00000001	      0.00000000	      0.00000000	     18.38301137	    -14.42126837	     10.07473708	     48.85567337	     90.00000001	      0.00000000	      0.00000000
      1.86000000	     13.67853565	     -2.68253973	      6.20694986	     -0.20145029	      0.89942461	      0.16955498	     -5.35114709	      2.93453192	    -26.21667242	     19.60271271	      1.71072886	      0.34213188	     18.32898242	     35.21893270	     -7.50905589	     -6.58819650	     -4.94672890	    -14.48201295	     56.98390815	    -16.60451648	      0.99455682	     17.37541625	     21.88148603	     -7.50905589	    -36.72511455	      6.85763892	      0.66249401	      0.84404468	    -16.21173121	      0.46848846	     48.49280362	     90.00000001	      0.00000000	      0.00000000	     17.90289325	    -14.44813035	     10.19401927	     48.34732576	     90.00000001	      0.00000000	      0.00000000
      1.87000000	     13.63990597	     -2.36242583	      6.42458020	     -0.18962311	      0.90065428	      0.17014253	     -6.60081543	      2.85743507	    -25.77661688	     18.82880190	      2.04156851	      0.32862459	     18.85574209	     35.17506059	     -7.50888449	     -4.63272463	     -4.46743905	    -14.35667638	     57.15721262	    -16.54364497	      0.99758155	     18.55987465	     20.87161849	     -7.50888449	    -36.80021590	      6.55376227	      0.70736938	      0.96894059	    -16.43444081	      0.61004753	     49.27349479	     90.00000001	      0.00000000	      0.00000000	     17.39132459	    -14.45524891	     10.33833789	     47.77324750	     90.00000001	      0.00000000	      0.00000000
      1.88000000	     13.72403916	     -2.04347440	      6.47085693	     -0.17762001	      0.90184388	      0.17109307	     -7.99040833	      2.83386069	    -25.12725221	     17.99066439	      2.29609262	      0.31399633	     19.25641506	     34.92303609	     -7.50860909	     -2.97251835	     -4.04397656	    -14.10134453	     56.98411455	    -16.03180451	      0.99456042	     19.54435270	     19.57890450	     -7.50860909	    -37.00127759	      6.16182244	      0.92076189	      1.03855332	    -16.64551273	      0.87826842	     50.15246058	     90.00000001	      0.00000000	      0.00000000	     16.86915996	    -14.42943111	     10.50195902	     47.26288612	     90.00000001	      0.00000000	      0.00000000
      1.89000000	     13.78552127	     -1.76575740	      6.47669874	     -0.16561314	      0.90276131	      0.17193717	     -9.37421004	      2.82433533	    -24.24016865	     17.10594242	      2.65878940	      0.29855502	     19.61913398	     34.42585323	     -7.50828519	     -1.36406585	     -3.61389965	    -14.00971933	     56.44109980	    -15.58906646	      0.98508302	     20.37785370	     18.50891992	     -7.50828519	    -37.17559920	      5.80819618	      1.14972942	      1.15319346	    -16.90641331	      1.07191076	     50.99376344	     90.00000001	      0.00000000	      0.00000000	     16.25383367	    -14.43083605	     10.60204488	     46.81890368	     90.00000001	      0.00000000	      0.00000000
      1.90000000	     13.73633038	     -1.55421949	      6.40744045	     -0.15370466	      0.90316576	      0.17290435	    -10.55024536	      2.87779566	    -23.45645104	     16.34122048	      2.86588224	      0.28520810	     20.14594780	     34.08380813	     -7.50813124	      0.33734534	     -3.22721292	    -14.10627396	     55.67777397	    -15.24661563	      0.97176048	     21.28288667	     17.78438597	     -7.50813124	    -37.23542339	      5.48067978	      1.44236351	      1.31863799	    -17.15235862	      1.15541868	     51.75553434	     90.00000001	      0.00000000	      0.00000000	     15.60283035	    -14.42250260	     10.64294062	     46.38861729	     90.00000001	      0.00000000	      0.00000000
